<svg xmlns="http://www.w3.org/2000/svg" width="50" height="40" fill="none"><path fill="#fff" d="M47.656 0h-.781v2.083c0 .688-.527 1.25-1.172 1.25h-3.906c-.645 0-1.172-.562-1.172-1.25V0H9.375v2.083c0 .688-.527 1.25-1.172 1.25H4.297c-.645 0-1.172-.562-1.172-1.25V0h-.781C1.044 0 0 1.115 0 2.5v35C0 38.885 1.045 40 2.344 40h.781v-2.083c0-.688.527-1.25 1.172-1.25h3.906c.645 0 1.172.562 1.172 1.25V40h31.25v-2.083c0-.688.527-1.25 1.172-1.25h3.906c.645 0 1.172.562 1.172 1.25V40h.781c1.3 0 2.344-1.115 2.344-2.5v-35C50 1.115 48.955 0 47.656 0ZM9.375 32.083c0 .688-.527 1.25-1.172 1.25H4.297c-.645 0-1.172-.562-1.172-1.25v-4.166c0-.688.527-1.25 1.172-1.25h3.906c.645 0 1.172.562 1.172 1.25v4.166Zm0-10c0 .688-.527 1.25-1.172 1.25H4.297c-.645 0-1.172-.562-1.172-1.25v-4.166c0-.688.527-1.25 1.172-1.25h3.906c.645 0 1.172.562 1.172 1.25v4.166Zm0-10c0 .688-.527 1.25-1.172 1.25H4.297c-.645 0-1.172-.562-1.172-1.25V7.917c0-.688.527-1.25 1.172-1.25h3.906c.645 0 1.172.562 1.172 1.25v4.166ZM37.5 35.417c0 .687-.527 1.25-1.172 1.25H13.672c-.645 0-1.172-.563-1.172-1.25v-12.5c0-.688.527-1.25 1.172-1.25h22.656c.645 0 1.172.562 1.172 1.25v12.5Zm0-18.334c0 .688-.527 1.25-1.172 1.25H13.672c-.645 0-1.172-.562-1.172-1.25v-12.5c0-.687.527-1.25 1.172-1.25h22.656c.645 0 1.172.563 1.172 1.25v12.5Zm9.375 15c0 .688-.527 1.25-1.172 1.25h-3.906c-.645 0-1.172-.562-1.172-1.25v-4.166c0-.688.527-1.25 1.172-1.25h3.906c.645 0 1.172.562 1.172 1.25v4.166Zm0-10c0 .688-.527 1.25-1.172 1.25h-3.906c-.645 0-1.172-.562-1.172-1.25v-4.166c0-.688.527-1.25 1.172-1.25h3.906c.645 0 1.172.562 1.172 1.25v4.166Zm0-10c0 .688-.527 1.25-1.172 1.25h-3.906c-.645 0-1.172-.562-1.172-1.25V7.917c0-.688.527-1.25 1.172-1.25h3.906c.645 0 1.172.562 1.172 1.25v4.166Z"/></svg>