<svg xmlns="http://www.w3.org/2000/svg" width="41" height="47" fill="none"><path fill="#fff" fill-opacity=".5" d="M38.648 20.005 6.773 1.162C4.183-.367.216 1.117.216 4.904V42.58c0 3.396 3.685 5.441 6.557 3.74l31.875-18.833c2.843-1.679 2.853-5.808 0-7.483Zm-9.284 6.233-18.98 11.214c-1.928 1.145-4.373-.25-4.373-2.494V12.52c0-2.244 2.445-3.636 4.372-2.494L29.364 21.25a2.898 2.898 0 0 1 0 4.988Z"/><path fill="#fff" d="m10.383 10.03 18.981 11.22a2.897 2.897 0 0 1 0 4.988l-18.98 11.214c-1.928 1.146-4.373-.25-4.373-2.494V12.52c0-2.242 2.445-3.634 4.372-2.492Z"/></svg>